<svg width="25" height="25" viewBox="0 0 25 25" fill="none" xmlns="http://www.w3.org/2000/svg">
<path d="M21.7701 2.81565L17.3072 7.27854C15.6422 6.42645 13.7805 6.03262 11.9131 6.13744C10.0457 6.24226 8.23975 6.84196 6.68057 7.87502C5.01853 8.97714 3.72094 10.5477 2.9521 12.3878C2.93731 12.4234 2.92969 12.4617 2.92969 12.5003C2.92969 12.5389 2.93731 12.5771 2.9521 12.6128C3.72096 14.4528 5.01853 16.0232 6.68052 17.1253C6.83768 17.2303 6.99728 17.3308 7.15933 17.4266L2.81558 21.7704C2.78777 21.7975 2.76561 21.8298 2.7504 21.8655C2.73519 21.9012 2.72722 21.9396 2.72696 21.9784C2.7267 22.0172 2.73415 22.0557 2.74888 22.0916C2.76361 22.1275 2.78533 22.1601 2.81277 22.1875C2.84022 22.215 2.87284 22.2367 2.90874 22.2514C2.94465 22.2661 2.98312 22.2736 3.02193 22.2733C3.06073 22.2731 3.0991 22.2651 3.1348 22.2499C3.1705 22.2347 3.20282 22.2125 3.22988 22.1847L7.69278 17.7218C9.35777 18.5739 11.2195 18.9677 13.0869 18.8629C14.9543 18.7581 16.7603 18.1584 18.3194 17.1253C19.9815 16.0231 21.2791 14.4525 22.0479 12.6124C22.0627 12.5767 22.0703 12.5385 22.0703 12.4999C22.0703 12.4613 22.0627 12.423 22.0479 12.3874C21.279 10.5474 19.9815 8.9769 18.3195 7.87482C18.1623 7.76978 18.0027 7.66934 17.8407 7.57351L22.1844 3.22971C22.2381 3.17452 22.268 3.1004 22.2674 3.02339C22.2669 2.94638 22.2361 2.87267 22.1816 2.81822C22.1272 2.76377 22.0534 2.73295 21.9764 2.73243C21.8994 2.73191 21.8253 2.76174 21.7701 2.81545V2.81565ZM7.00611 16.638C5.47511 15.6229 4.27139 14.1855 3.54082 12.5001C4.27139 10.8146 5.47511 9.37728 7.00611 8.36218C8.4518 7.40494 10.1223 6.8417 11.8525 6.72818C13.5827 6.61466 15.3125 6.95478 16.8709 7.71491L15.6599 8.92585C14.7499 8.12144 13.5674 7.69438 12.3535 7.73172C11.1395 7.76907 9.98547 8.26801 9.12667 9.12683C8.26786 9.98565 7.76894 11.1397 7.73161 12.3536C7.69428 13.5676 8.12136 14.7501 8.92578 15.6601L7.58789 16.998C7.3904 16.8849 7.19647 16.7649 7.00611 16.638ZM13.8546 12.5001C13.8547 12.7429 13.7894 12.9813 13.6657 13.1902C13.542 13.3992 13.3644 13.5711 13.1515 13.6879C12.9386 13.8047 12.6982 13.8621 12.4555 13.8541C12.2128 13.8462 11.9767 13.7731 11.7719 13.6426L13.6426 11.772C13.7816 11.9893 13.8553 12.2421 13.8546 12.5001ZM11.1454 12.5001C11.1454 12.2572 11.2106 12.0189 11.3343 11.8099C11.458 11.6009 11.6356 11.4291 11.8485 11.3123C12.0614 11.1955 12.3018 11.138 12.5445 11.146C12.7872 11.154 13.0233 11.227 13.2281 11.3575L11.3574 13.2281C11.2184 13.0108 11.1447 12.7581 11.1454 12.5001ZM13.6494 10.9364C13.2755 10.6617 12.8157 10.5301 12.3531 10.5652C11.8906 10.6004 11.4559 10.8001 11.1279 11.1281C10.7999 11.4561 10.6002 11.8908 10.565 12.3533C10.5299 12.8159 10.6615 13.2757 10.9362 13.6496L9.34151 15.2442C8.64664 14.4449 8.28078 13.4117 8.31774 12.3532C8.3547 11.2947 8.79173 10.2897 9.54066 9.54072C10.2896 8.7918 11.2947 8.35477 12.3532 8.31781C13.4117 8.28085 14.4448 8.64671 15.2441 9.34157L13.6494 10.9364ZM11.3506 14.0637C11.7245 14.3384 12.1843 14.4701 12.6469 14.4349C13.1094 14.3997 13.5441 14.2 13.8721 13.872C14.2001 13.544 14.3998 13.1094 14.435 12.6468C14.4701 12.1842 14.3385 11.7244 14.0638 11.3506L15.6585 9.75593C16.3534 10.5553 16.7192 11.5884 16.6823 12.6469C16.6453 13.7054 16.2083 14.7105 15.4593 15.4594C14.7104 16.2083 13.7053 16.6454 12.6468 16.6823C11.5883 16.7193 10.5552 16.3534 9.75586 15.6586L11.3506 14.0637ZM17.9939 8.36218C19.5249 9.37728 20.7286 10.8146 21.4592 12.5001C20.7286 14.1855 19.5249 15.6229 17.9939 16.638C16.5482 17.5952 14.8777 18.1584 13.1475 18.272C11.4173 18.3855 9.68753 18.0454 8.12915 17.2852L9.34009 16.0743C10.2501 16.8787 11.4326 17.3058 12.6465 17.2684C13.8605 17.2311 15.0145 16.7321 15.8733 15.8733C16.7321 15.0145 17.2311 13.8605 17.2684 12.6465C17.3057 11.4325 16.8786 10.25 16.0742 9.34006L17.4121 8.00217C17.6096 8.11522 17.8035 8.23523 17.9939 8.36218Z" fill="black"/>
</svg>
