<svg width="18" height="13" viewBox="0 0 18 13" fill="none" xmlns="http://www.w3.org/2000/svg">
<path d="M17.816 5.70788C16.0478 2.18713 12.6697 0 8.99998 0C5.3303 0 1.95228 2.18713 0.184048 5.70788C-0.0613493 6.19646 -0.0613493 6.80354 0.184048 7.29212C1.95228 10.8129 5.33037 13 9.00001 13C12.6697 13 16.0478 10.8129 17.816 7.29212C18.0613 6.80354 18.0613 6.19646 17.816 5.70788ZM17.3497 6.98876C15.6769 10.3196 12.4774 12.3887 8.99998 12.3887C5.52256 12.3887 2.32313 10.3196 0.650281 6.98876C0.498868 6.68732 0.498868 6.31272 0.650281 6.01128C2.32313 2.68048 5.52256 0.611324 8.99998 0.611324C12.4774 0.611324 15.6769 2.68044 17.3497 6.01124C17.5011 6.31272 17.5011 6.68728 17.3497 6.98876Z" fill="black"/>
<path d="M8.9999 1.95654C6.79867 1.95654 5.00781 3.99493 5.00781 6.50042C5.00781 9.0059 6.79867 11.0443 8.9999 11.0443C11.2011 11.0443 12.992 9.0059 12.992 6.50042C12.992 3.99493 11.2012 1.95654 8.9999 1.95654ZM8.9999 10.433C7.0948 10.433 5.54486 8.66884 5.54486 6.50042C5.54486 4.33199 7.0948 2.56783 8.9999 2.56783C10.905 2.56783 12.4549 4.33199 12.4549 6.50042C12.4549 8.66884 10.905 10.433 8.9999 10.433Z" fill="black"/>
<path d="M10.6966 5.24479C10.5627 5.31725 10.5057 5.49961 10.5694 5.65207C10.6803 5.91761 10.7365 6.20271 10.7365 6.49939C10.7365 7.58922 9.95754 8.47587 9.00005 8.47587C8.04256 8.47587 7.26358 7.58922 7.26358 6.49939C7.26358 5.40955 8.04256 4.5229 9.00005 4.5229C9.26066 4.5229 9.51111 4.58689 9.74444 4.7131C9.87842 4.78559 10.0386 4.72072 10.1023 4.56826C10.1659 4.41581 10.109 4.23348 9.97501 4.16103C9.66911 3.99553 9.34108 3.91162 9.00008 3.91162C7.74646 3.91162 6.72656 5.07249 6.72656 6.49939C6.72656 7.92629 7.74646 9.08715 9.00008 9.08715C10.2537 9.08715 11.2736 7.92629 11.2736 6.49939C11.2736 6.11118 11.1999 5.73781 11.0544 5.38958C10.9908 5.23717 10.8306 5.17229 10.6966 5.24479Z" fill="black"/>
</svg>
