<svg width="27" height="25" viewBox="0 0 27 25" fill="none" xmlns="http://www.w3.org/2000/svg">
<path d="M15.848 24.8291C15.7195 24.834 15.6372 24.8438 15.555 24.8438C13.7969 24.8438 12.0441 24.8389 10.286 24.8486C10.0393 24.8486 9.97245 24.7852 9.97245 24.5508C9.97759 20.6641 9.97759 16.7725 9.97759 12.8858C9.97759 12.7832 9.97759 12.6807 9.97759 12.5488C9.02147 12.5488 8.09105 12.5488 7.1452 12.5488C7.1452 11.1621 7.1452 9.79982 7.1452 8.39845C7.24287 8.39845 7.3354 8.39845 7.42279 8.39845C8.19385 8.39845 8.96492 8.39357 9.73599 8.40333C9.93133 8.40333 9.98273 8.34962 9.98273 8.16896C9.97245 7.08009 9.97245 5.98634 9.98273 4.89747C9.98787 4.13575 10.1164 3.39357 10.4865 2.70509C11.016 1.73341 11.8539 1.10353 12.9128 0.712903C13.7764 0.390637 14.6862 0.27345 15.6012 0.258801C17.092 0.23927 18.5827 0.249036 20.0734 0.244153C20.2122 0.244153 20.3253 0.23927 20.3253 0.424817C20.3202 1.76759 20.3202 3.11036 20.3202 4.45314C20.3202 4.46779 20.315 4.48243 20.2945 4.54591C20.2071 4.54591 20.1094 4.54591 20.0118 4.54591C19.0865 4.54591 18.1612 4.54103 17.2359 4.54591C16.7013 4.54591 16.2695 4.75099 15.9971 5.19532C15.9148 5.32716 15.8634 5.49806 15.8634 5.65431C15.848 6.48439 15.8634 7.31447 15.8531 8.14454C15.8531 8.33986 15.9148 8.39357 16.1153 8.39357C17.4004 8.3838 18.6855 8.38868 19.9706 8.38868C20.0734 8.38868 20.1711 8.38868 20.3459 8.38868C20.166 9.78517 19.9912 11.1524 19.8113 12.5342C18.4748 12.5342 17.1742 12.5342 15.848 12.5342C15.848 16.6406 15.848 20.7227 15.848 24.8291Z" fill="white"/>
</svg>
