<svg width="25" height="25" viewBox="0 0 25 25" fill="none" xmlns="http://www.w3.org/2000/svg">
<path d="M23.291 0H1.70898C0.76665 0 0 0.76665 0 1.70898V23.291C0 24.2333 0.76665 25 1.70898 25H23.291C24.2333 25 25 24.2333 25 23.291V1.70898C25 0.76665 24.2333 0 23.291 0ZM23.5352 23.291C23.5352 23.4256 23.4256 23.5352 23.291 23.5352H1.70898C1.57437 23.5352 1.46484 23.4256 1.46484 23.291V1.70898C1.46484 1.57437 1.57437 1.46484 1.70898 1.46484H23.291C23.4256 1.46484 23.5352 1.57437 23.5352 1.70898V23.291Z" fill="black"/>
<path d="M10.2167 10.9287H3.87469C3.4702 10.9287 3.14227 11.2566 3.14227 11.6611C3.14227 12.0656 3.4702 12.3936 3.87469 12.3936H6.32645V19.8823C6.32645 20.2868 6.65438 20.6147 7.05887 20.6147C7.46337 20.6147 7.7913 20.2868 7.7913 19.8823V12.3936H10.2167C10.6212 12.3936 10.9492 12.0656 10.9492 11.6611C10.9492 11.2566 10.6212 10.9287 10.2167 10.9287V10.9287Z" fill="black"/>
<path d="M21.1253 4.38574H9.7359C9.33141 4.38574 9.00348 4.71367 9.00348 5.11816C9.00348 5.52266 9.33141 5.85059 9.7359 5.85059H14.7218V19.8823C14.7218 20.2868 15.0498 20.6147 15.4543 20.6147C15.8588 20.6147 16.1867 20.2868 16.1867 19.8823V5.85059H21.1254C21.5298 5.85059 21.8578 5.52266 21.8578 5.11816C21.8578 4.71367 21.5298 4.38574 21.1253 4.38574V4.38574Z" fill="black"/>
</svg>
