<svg width="100" height="118" viewBox="0 0 100 118" fill="none" xmlns="http://www.w3.org/2000/svg">
<g clip-path="url(#clip0)">
<path d="M67.2174 0C69.7488 0.0480596 72.1603 1.08375 73.9334 2.88446C75.7066 4.68517 76.6999 7.10715 76.6999 9.62982C76.6999 12.1525 75.7066 14.5745 73.9334 16.3752C72.1603 18.1759 69.7488 19.2116 67.2174 19.2596H44.263V26.7097H64.5613C67.125 26.7097 69.5838 27.7244 71.3966 29.5307C73.2095 31.337 74.2279 33.7868 74.2279 36.3413C74.2279 38.8957 73.2095 41.3455 71.3966 43.1518C69.5838 44.9581 67.125 45.9728 64.5613 45.9728H44.263V65.1416C44.263 66.512 43.9921 67.869 43.4658 69.1351C42.9394 70.4013 42.1679 71.5517 41.1954 72.5207C40.2228 73.4898 39.0682 74.2584 37.7975 74.7829C36.5267 75.3073 35.1648 75.5772 33.7894 75.5772C32.4139 75.5772 31.052 75.3073 29.7813 74.7829C28.5105 74.2584 27.3559 73.4898 26.3833 72.5207C25.4108 71.5517 24.6393 70.4013 24.1129 69.1351C23.5866 67.869 23.3157 66.512 23.3157 65.1416V10.4496C23.3157 7.67944 24.4197 5.02259 26.385 3.0631C28.3503 1.10361 31.0161 0.0018536 33.7964 0L67.2174 0Z" fill="white"/>
<path d="M32.9088 4.19531H66.2878C67.715 4.23133 69.0717 4.82154 70.0683 5.84008C71.065 6.85861 71.6229 8.22485 71.6229 9.64738C71.6229 11.0699 71.065 12.4361 70.0683 13.4547C69.0717 14.4732 67.715 15.0634 66.2878 15.0994H39.1474V30.891H63.6492C65.0999 30.891 66.4913 31.4653 67.5172 32.4874C68.543 33.5095 69.1193 34.8958 69.1193 36.3413C69.1193 37.7869 68.543 39.1732 67.5172 40.1953C66.4913 41.2174 65.0999 41.7917 63.6492 41.7917H39.1474V65.1417C39.1474 65.9639 38.9849 66.7781 38.669 67.5378C38.3532 68.2975 37.8903 68.9877 37.3068 69.5691C36.7233 70.1506 36.0305 70.6118 35.2681 70.9264C34.5056 71.2411 33.6884 71.4031 32.8632 71.4031C32.0379 71.4031 31.2208 71.2411 30.4583 70.9264C29.6959 70.6118 29.0031 70.1506 28.4196 69.5691C27.836 68.9877 27.3731 68.2975 27.0573 67.5378C26.7415 66.7781 26.579 65.9639 26.579 65.1417V10.4497C26.5818 8.79059 27.245 7.20031 28.4231 6.02778C29.6012 4.85525 31.198 4.19624 32.8632 4.19531H32.9088Z" fill="url(#paint0_linear)"/>
<path d="M72.9825 31.9678C74.733 33.0522 76.0809 34.6758 76.8216 36.5925C77.5623 38.5091 77.6553 40.6141 77.0867 42.5882C76.5181 44.5623 75.3187 46.2978 73.6707 47.5314C72.0226 48.7649 70.0157 49.4292 67.9544 49.4235H47.4632V68.7776C47.4602 71.0501 46.6997 73.2572 45.3011 75.0522C43.9024 76.8473 41.9449 78.1286 39.7361 78.6948C37.5273 79.261 35.1922 79.0801 33.0978 78.1804C31.0034 77.2808 29.2682 75.7134 28.1649 73.7245C29.7174 74.7417 31.5175 75.321 33.3739 75.4009C35.2303 75.4807 37.0738 75.0581 38.7085 74.1779C40.3432 73.2977 41.7082 71.9928 42.6584 70.4018C43.6086 68.8108 44.1086 66.9931 44.1053 65.1417V45.7981H64.5614C66.1954 45.8041 67.8032 45.3889 69.2286 44.5928C70.6539 43.7968 71.8484 42.6469 72.6959 41.2549C73.5435 39.863 74.0153 38.2763 74.0655 36.6489C74.1157 35.0216 73.7426 33.409 72.9825 31.9678V31.9678ZM75.614 5.24414C77.3764 6.3237 78.7356 7.94834 79.4841 9.86992C80.2326 11.7915 80.3293 13.9044 79.7593 15.8859C79.1893 17.8673 77.9841 19.6084 76.3277 20.8433C74.6712 22.0781 72.6547 22.7387 70.586 22.7243H47.4526V26.9196H44.0807V19.0779H67.2175C68.85 19.08 70.4552 18.6618 71.8777 17.8638C73.3001 17.0658 74.4915 15.9151 75.3362 14.5233C76.181 13.1315 76.6504 11.5459 76.6991 9.92011C76.7478 8.29434 76.374 6.68362 75.614 5.24414V5.24414Z" fill="#D1D5DD"/>
<path fill-rule="evenodd" clip-rule="evenodd" d="M46.7018 95.9905C48.0256 95.5561 49.4411 95.4784 50.8048 95.7651C52.1686 96.0518 53.4319 96.6929 54.4667 97.6231C54.9301 98.0084 55.3111 98.4825 55.587 99.0173C55.863 99.5521 56.0283 100.137 56.0731 100.736C56.118 101.336 56.0414 101.939 55.848 102.508C55.6547 103.078 55.3484 103.603 54.9474 104.052C54.4488 104.624 53.817 105.066 53.1075 105.338C52.3979 105.611 51.6321 105.706 50.8772 105.615C50.1926 105.514 49.5413 105.254 48.9754 104.856L48.8597 104.937C48.6848 105.07 48.5206 105.216 48.3684 105.374V110.296C48.3808 110.908 48.2693 111.515 48.0405 112.082C47.8117 112.65 47.4704 113.165 47.037 113.598C46.6036 114.031 46.087 114.372 45.5181 114.601C44.9493 114.83 44.3399 114.943 43.7263 114.932C42.5166 114.924 41.3536 114.465 40.4667 113.645C39.6243 114.399 38.5285 114.81 37.3965 114.796H33.9228C32.0747 114.837 30.2624 114.284 28.7544 113.219C28.0413 113.891 27.1329 114.32 26.1597 114.446C25.1864 114.571 24.1982 114.387 23.3369 113.918C21.4156 114.902 19.2098 115.186 17.1008 114.721C14.9917 114.256 13.1118 113.072 11.786 111.373C11.5166 112.351 10.93 113.213 10.1177 113.825C9.30533 114.436 8.31281 114.763 7.29474 114.754C6.68095 114.766 6.07096 114.655 5.50135 114.427C4.93173 114.198 4.41419 113.858 3.97976 113.426C3.54532 112.994 3.20292 112.479 2.97307 111.911C2.74322 111.344 2.63065 110.737 2.64211 110.125V105.14C1.85875 104.809 1.19052 104.255 0.720754 103.548C0.250991 102.841 0.000488281 102.012 0.000488281 101.165C0.000488281 100.317 0.250991 99.4878 0.720754 98.7809C1.19052 98.074 1.85875 97.5206 2.64211 97.1896C2.78597 93.302 5.5579 90.5716 9.56843 90.5821H10.379C13.4561 90.5821 15.0246 93.0783 15.0246 95.2144C15.0216 95.7766 14.9194 96.334 14.7228 96.861C16.07 96.1491 17.5734 95.7816 19.0983 95.7912C20.7051 95.7938 22.284 96.2104 23.6815 97.0006C25.079 97.7909 26.2476 98.9279 27.0737 100.301C27.743 99.4292 28.5885 98.707 29.5555 98.1813C30.5226 97.6555 31.5897 97.338 32.6877 97.2491V94.1026C32.6707 93.4843 32.7782 92.8688 33.0039 92.2926C33.2296 91.7164 33.5689 91.1911 34.0018 90.7477C34.4347 90.3043 34.9524 89.9519 35.5243 89.7113C36.0963 89.4707 36.7108 89.3467 37.3316 89.3467C37.9524 89.3467 38.5669 89.4707 39.1388 89.7113C39.7107 89.9519 40.2285 90.3043 40.6614 90.7477C41.0943 91.1911 41.4336 91.7164 41.6593 92.2926C41.885 92.8688 41.9925 93.4843 41.9754 94.1026V95.2948C42.7546 94.9864 43.6021 94.8903 44.4308 95.0163C45.2596 95.1422 46.0398 95.4857 46.6912 96.0115L46.7018 95.9905ZM54.4667 97.6231C56.1074 96.3029 58.1542 95.5857 60.2632 95.5919C62.2581 95.5768 64.2004 96.2293 65.779 97.4448C66.2658 96.7802 66.9141 96.2496 67.6632 95.9031C69.614 95.0186 72.5404 95.4101 73.814 98.2035L74.1649 99.0111L74.5544 98.172C75.8491 95.3752 78.7649 95.0256 80.7228 95.9171C81.5676 96.315 82.2792 96.9474 82.7719 97.7385C84.4047 96.4627 86.4234 95.7762 88.4983 95.7912C93.8737 95.7912 97.9053 100.263 97.9053 105.374C97.9053 110.485 93.8737 114.953 88.4983 114.953C86.613 114.947 84.7734 114.374 83.2202 113.309C81.667 112.245 80.4725 110.737 79.793 108.985L78.5965 111.572C78.3888 112.191 78.0516 112.758 77.607 113.236C77.1684 113.72 76.6324 114.106 76.034 114.369C75.4356 114.633 74.7882 114.767 74.1341 114.765C73.4799 114.762 72.8337 114.622 72.2375 114.354C71.6412 114.086 71.1084 113.695 70.6737 113.208C70.2325 112.729 69.8998 112.16 69.6983 111.541L68.3895 108.667C68.5237 109.498 68.4132 110.35 68.0713 111.119C67.7294 111.889 67.1708 112.543 66.4632 113.002C64.4421 114.401 61.9018 114.75 60.2772 114.75C55.0597 114.75 51.1053 110.534 50.8842 105.612C51.6403 105.704 52.4074 105.609 53.1183 105.337C53.8292 105.064 54.4621 104.622 54.9614 104.049C56.3333 102.465 56.7825 99.6089 54.5018 97.6406L54.4807 97.6196L54.4667 97.6231Z" fill="white"/>
<path d="M50.8773 105.615C50.8991 106.098 50.9565 106.578 51.0492 107.052L50.9545 107.115C50.7806 107.25 50.6164 107.397 50.4632 107.555V112.478C50.4761 113.09 50.3647 113.698 50.1357 114.267C49.9067 114.835 49.5649 115.351 49.1307 115.784C48.6965 116.218 48.1789 116.559 47.6089 116.788C47.039 117.017 46.4285 117.129 45.8141 117.117C44.6044 117.109 43.4414 116.65 42.5545 115.83C41.7121 116.584 40.6163 116.995 39.4843 116.981H36.0106C34.0723 117.026 32.1768 116.409 30.6387 115.233C29.9281 115.929 29.0119 116.379 28.0251 116.517C27.0384 116.654 26.0333 116.473 25.158 115.998C23.2649 116.928 21.1044 117.167 19.0527 116.673C17.001 116.18 15.1881 114.984 13.9299 113.296C13.7077 114.332 13.1316 115.26 12.2999 115.921C11.4682 116.582 10.4323 116.936 9.3685 116.921C8.47232 116.925 7.59396 116.672 6.8381 116.192C6.08225 115.712 5.48077 115.026 5.10535 114.215C5.77728 114.556 6.51983 114.736 7.27377 114.74C8.33707 114.754 9.37263 114.402 10.2043 113.741C11.0359 113.081 11.6122 112.154 11.8352 111.118C13.0952 112.804 14.9079 113.998 16.9589 114.491C19.0099 114.985 21.1696 114.748 23.0632 113.82C23.9386 114.295 24.9442 114.477 25.9312 114.339C26.9183 114.2 27.8343 113.749 28.5439 113.051C30.082 114.227 31.9775 114.844 33.9159 114.799H37.3896C38.5215 114.813 39.6174 114.402 40.4597 113.649C41.3467 114.469 42.5096 114.928 43.7194 114.935C44.3329 114.946 44.9423 114.834 45.5112 114.605C46.0801 114.375 46.5967 114.034 47.0301 113.601C47.4635 113.169 47.8048 112.653 48.0335 112.086C48.2623 111.519 48.3739 110.911 48.3615 110.3V105.374C48.5136 105.216 48.6779 105.07 48.8527 104.937L48.9685 104.856C49.5364 105.255 50.1902 105.515 50.8773 105.615ZM26.351 99.032C26.4913 99.1369 27.2948 99.5634 27.4282 99.6753L26.9931 100.375C26.8983 100.21 26.4562 99.1789 26.351 99.0251V99.032ZM14.586 92.8406C15.1991 93.152 15.7345 93.5963 16.1528 94.1407C16.5712 94.6852 16.8619 95.316 17.0036 95.987C16.127 96.1903 15.2868 96.5264 14.5124 96.9834C14.8385 96.3453 15.0146 95.6416 15.0273 94.9257C15.0401 94.2097 14.8892 93.5003 14.586 92.8511V92.8406ZM70.3334 112.81C70.0275 113.782 69.3957 114.62 68.5439 115.184C66.5229 116.582 63.9825 116.932 62.358 116.932C60.8469 116.932 59.3585 116.565 58.0223 115.862C56.6861 115.159 55.5426 114.141 54.6913 112.897C56.295 114.106 58.2525 114.757 60.2632 114.75C61.8808 114.75 64.4282 114.401 66.4492 113.002C67.1568 112.543 67.7154 111.889 68.0573 111.119C68.3993 110.35 68.5098 109.498 68.3755 108.667L69.6843 111.541C69.8328 111.995 70.0518 112.423 70.3334 112.81V112.81ZM81.5615 111.831L80.6703 113.754C80.4636 114.372 80.1262 114.938 79.6808 115.414C79.2427 115.899 78.707 116.285 78.1087 116.549C77.5104 116.813 76.8629 116.948 76.2086 116.946C75.5543 116.944 74.9079 116.804 74.3115 116.536C73.715 116.268 73.1821 115.877 72.7475 115.39C72.4408 115.053 72.1844 114.674 71.986 114.264C72.6437 114.6 73.3734 114.772 74.1124 114.764C74.7683 114.778 75.4192 114.648 76.0194 114.384C76.6195 114.12 77.1543 113.729 77.586 113.236C78.0306 112.758 78.3679 112.191 78.5755 111.572L79.786 108.968C80.2045 110.019 80.8055 110.988 81.5615 111.831V111.831ZM96.158 99.8117C97.3526 100.717 98.321 101.886 98.9875 103.226C99.654 104.567 100.001 106.042 100 107.538C100 112.646 95.9685 117.117 90.5931 117.117C89.082 117.118 87.5936 116.751 86.2574 116.047C84.9212 115.344 83.7777 114.327 82.9264 113.083C84.5301 114.291 86.4875 114.942 88.4983 114.935C93.8738 114.935 97.9054 110.464 97.9054 105.356C97.9016 103.373 97.2895 101.438 96.151 99.8117H96.158ZM73.7018 98.1475C74.0306 98.2863 74.3505 98.4451 74.6597 98.623L74.2668 99.2593L73.7404 98.228L73.7018 98.1475V98.1475ZM41.6001 92.1519C42.1628 92.4271 42.6599 92.8191 43.0581 93.3014C43.4563 93.7838 43.7464 94.3454 43.9089 94.9487H43.7159C43.1225 94.9519 42.5348 95.0645 41.9825 95.2808V94.0887C41.9899 93.426 41.8597 92.769 41.6001 92.1588V92.1519Z" fill="#D1D5DD"/>
<path d="M19.021 101.955C18.1534 102.01 17.3395 102.393 16.7448 103.025C16.15 103.657 15.819 104.49 15.819 105.357C15.819 106.223 16.15 107.057 16.7448 107.688C17.3395 108.32 18.1534 108.703 19.021 108.758C19.8993 108.731 20.7308 108.357 21.3328 107.719C21.9348 107.082 22.258 106.232 22.2316 105.357C22.2319 105.096 22.2048 104.836 22.1509 104.581L22.1298 104.511C22.1066 104.437 22.0878 104.362 22.0737 104.287C21.8798 103.625 21.4793 103.042 20.9304 102.623C20.3814 102.204 19.7126 101.97 19.021 101.955V101.955ZM19.021 98.6827C20.4809 98.6972 21.8936 99.199 23.0335 100.108C24.1734 101.017 24.9745 102.28 25.3088 103.696L27.0842 109.454C27.7263 111.552 24.593 112.499 23.9509 110.415L23.786 109.887C23.1897 110.561 22.4565 111.1 21.6349 111.47C20.8134 111.839 19.9224 112.03 19.021 112.031C15.3754 112.031 12.5298 108.979 12.5298 105.357C12.5298 101.735 15.3754 98.6827 19.021 98.6827ZM64.7123 110.615C63.3754 111.538 61.5053 111.849 60.1895 111.849C56.5403 111.849 53.6982 108.797 53.6982 105.175C53.6982 101.553 56.5403 98.5009 60.1895 98.5009C63.6351 98.5009 66.2316 101.2 66.4105 104.626C66.4395 104.92 66.3836 105.216 66.2493 105.479C66.115 105.742 65.908 105.962 65.6526 106.112C65.5237 106.235 65.3713 106.332 65.2043 106.395C65.0374 106.459 64.8593 106.488 64.6807 106.482H57.221C57.4468 107.089 57.8508 107.613 58.3803 107.988C58.9099 108.362 59.5404 108.568 60.1895 108.58C61.1169 108.6 62.0332 108.376 62.8456 107.93C64.6421 106.682 66.5088 109.37 64.7123 110.615ZM62.9333 103.755C62.7454 103.178 62.3785 102.675 61.8854 102.319C61.3923 101.963 60.7985 101.772 60.1895 101.773C59.5613 101.784 58.95 101.977 58.4307 102.329C57.9114 102.681 57.5068 103.177 57.2667 103.755H62.9333ZM45.3719 99.5777V99.8119C47.7088 98.1968 50.3158 97.9485 52.5017 99.8399C54.1544 101.27 52.007 103.741 50.3544 102.312C49.5263 101.612 47.7158 101.263 45.3719 104.304V110.297C45.3719 112.6 41.9123 112.6 41.9123 110.297V99.5777C41.9123 97.2738 45.3719 97.2738 45.3719 99.5777ZM38.9965 94.0819V110.125C39.0003 110.415 38.9367 110.703 38.8105 110.964C38.6867 111.254 38.4766 111.499 38.2087 111.666C37.9407 111.833 37.6279 111.914 37.3123 111.898H33.8456C30.1544 111.898 28.2316 109.426 28.2035 105.811C28.1754 102.196 30.2807 100.081 33.7053 100.088L35.5368 100.162V94.0819C35.5368 91.778 38.9965 91.778 38.9965 94.0819V94.0819ZM35.5368 108.618V103.427L33.6351 103.346C32.186 103.346 31.4947 103.857 31.4842 105.794C31.4842 107.968 32.2982 108.611 33.8491 108.622L35.5368 108.618ZM10.3053 96.9417H9.47367C9.32335 96.937 9.17315 96.9547 9.02806 96.9941C8.96583 97.1536 8.93257 97.3229 8.92981 97.4941V99.8049H10.4772C12.2982 99.8049 12.2982 102.528 10.4772 102.528H8.94034V110.125C8.94034 112.429 5.48069 112.429 5.48069 110.125V102.539H4.21052C2.38946 102.539 2.38946 99.8154 4.21052 99.8154H5.48771V97.4941C5.48771 95.0468 7.02104 93.4946 9.49473 93.5016H10.3123C12.6316 93.4911 12.6316 96.9417 10.3053 96.9417V96.9417ZM88.421 101.955C87.7368 101.914 87.0559 102.078 86.4666 102.427C85.8773 102.776 85.4068 103.293 85.116 103.912C84.8252 104.53 84.7276 105.221 84.8359 105.896C84.9442 106.57 85.2533 107.197 85.7231 107.694C86.193 108.191 86.8019 108.536 87.4711 108.685C88.1402 108.833 88.8386 108.778 89.4757 108.526C90.1129 108.274 90.6594 107.837 91.0444 107.272C91.4295 106.707 91.6352 106.04 91.6351 105.357C91.6615 104.481 91.3378 103.631 90.7351 102.993C90.1323 102.355 89.3 101.981 88.421 101.955V101.955ZM88.421 98.6827C92.0702 98.6827 94.9123 101.731 94.9123 105.357C94.9123 108.982 92.0702 112.031 88.421 112.031C84.7719 112.031 81.9298 108.979 81.9298 105.357C81.9298 101.735 84.7754 98.6827 88.421 98.6827ZM71.0842 99.4064L74.0772 105.979L77.1368 99.3959C78.1088 97.2983 81.2491 98.7596 80.2772 100.847L75.7895 110.541C75.7189 110.823 75.5735 111.08 75.3684 111.286C75.2122 111.475 75.0138 111.625 74.789 111.725C74.5643 111.825 74.3194 111.871 74.0737 111.859C73.8276 111.868 73.5827 111.821 73.3582 111.72C73.1336 111.619 72.9354 111.468 72.7789 111.279C72.5783 111.07 72.4366 110.812 72.3684 110.531L67.9509 100.836C66.9789 98.7421 70.1298 97.3123 71.0842 99.4064Z" fill="url(#paint1_linear)"/>
</g>
<defs>
<linearGradient id="paint0_linear" x1="49.1649" y1="4.17783" x2="49.1649" y2="71.4135" gradientUnits="userSpaceOnUse">
<stop stop-color="#18E8D4"/>
<stop offset="1" stop-color="#44A2E2"/>
</linearGradient>
<linearGradient id="paint1_linear" x1="49.0094" y1="92.3489" x2="49.0094" y2="112.034" gradientUnits="userSpaceOnUse">
<stop stop-color="#18E8D4"/>
<stop offset="1" stop-color="#44A2E2"/>
</linearGradient>
<clipPath id="clip0">
<rect width="100" height="117.117" fill="white"/>
</clipPath>
</defs>
</svg>
